HIERARCHY
ROOT root
{
	OFFSET	0	13.1	24.9
	CHANNELS 6  Xposition Yposition Zposition Xrotation Yrotation Zrotation
	JOINT spine_1
	{
		OFFSET	0	9.99999	0
		CHANNELS 3  Xrotation Yrotation Zrotation
		JOINT spine_2
		{
			OFFSET	0	112	-10
			CHANNELS 3  Xrotation Yrotation Zrotation
			JOINT spine_3
			{
				OFFSET	0	206.5	19.3
				CHANNELS 3  Xrotation Yrotation Zrotation
				JOINT spine_4
				{
					OFFSET	0	110.4	14.6
					CHANNELS 3  Xrotation Yrotation Zrotation
					JOINT neck_1
					{
						OFFSET	0	71.8	-50.3
						CHANNELS 3  Xrotation Yrotation Zrotation
						JOINT neck_2
						{
							OFFSET	0	86.2	-25.8
							CHANNELS 3  Xrotation Yrotation Zrotation
							JOINT head_ee
							{
								OFFSET	0	179.8	-8.7
								CHANNELS 3  Xrotation Yrotation Zrotation
								End Site
								{
									OFFSET	1	0	0
								}
							}
						}
					}
					JOINT left_clavicle
					{
						OFFSET	-43.2	22.4	-70.8
						CHANNELS 3  Xrotation Yrotation Zrotation
						JOINT left_shoulder
						{
							OFFSET	-93.9	-5.79999	48.7
							CHANNELS 3  Xrotation Yrotation Zrotation
							JOINT left_elbow
							{
								OFFSET	-291.4	-30.8	15.2
								CHANNELS 3  Xrotation Yrotation Zrotation
								JOINT left_lowarm_twist
								{
									OFFSET	-110.7	-3.89999	13.6
									CHANNELS 3  Xrotation Yrotation Zrotation
									JOINT left_hand
									{
										OFFSET	-110.7	-3.89999	13.6
										CHANNELS 3  Xrotation Yrotation Zrotation
										JOINT left_ee
										{
											OFFSET	-80.8	-5.10001	12.1
											CHANNELS 3  Xrotation Yrotation Zrotation
											End Site
											{
												OFFSET	1	0	0
											}
										}
									}
								}
							}
						}
					}
					JOINT right_clavicle
					{
						OFFSET	43.2	22.4	-70.8
						CHANNELS 3  Xrotation Yrotation Zrotation
						JOINT right_shoulder
						{
							OFFSET	93.9	-5.79999	48.7
							CHANNELS 3  Xrotation Yrotation Zrotation
							JOINT right_elbow
							{
								OFFSET	291.4	-30.8	15.2
								CHANNELS 3  Xrotation Yrotation Zrotation
								JOINT right_lowarm_twist
								{
									OFFSET	110.7	-3.89999	13.6
									CHANNELS 3  Xrotation Yrotation Zrotation
									JOINT right_hand
									{
										OFFSET	110.7	-3.89999	13.6
										CHANNELS 3  Xrotation Yrotation Zrotation
										JOINT right_ee
										{
											OFFSET	80.8	-5.10001	12.1
											CHANNELS 3  Xrotation Yrotation Zrotation
											End Site
											{
												OFFSET	1	0	0
											}
										}
									}
								}
							}
						}
					}
				}
			}
		}
	}
	JOINT left_hip
	{
		OFFSET	-82.8	-127.5	0.300001
		CHANNELS 3  Xrotation Yrotation Zrotation
		JOINT left_knee
		{
			OFFSET	-28.2	-396.7	2.2
			CHANNELS 3  Xrotation Yrotation Zrotation
			JOINT left_ankle
			{
				OFFSET	-11.7	-411.3	35.4
				CHANNELS 3  Xrotation Yrotation Zrotation
				JOINT left_toes
				{
					OFFSET	0	-60	-88.6
					CHANNELS 3  Xrotation Yrotation Zrotation
					JOINT left_foot_ee
					{
						OFFSET	-22.5	-16.5	-42.2
						CHANNELS 3  Xrotation Yrotation Zrotation
						End Site
						{
							OFFSET	1	0	0
						}
					}
				}
			}
		}
	}
	JOINT right_hip
	{
		OFFSET	82.8	-127.5	0.300001
		CHANNELS 3  Xrotation Yrotation Zrotation
		JOINT right_knee
		{
			OFFSET	28.2	-396.7	2.2
			CHANNELS 3  Xrotation Yrotation Zrotation
			JOINT right_ankle
			{
				OFFSET	11.7	-411.3	35.4
				CHANNELS 3  Xrotation Yrotation Zrotation
				JOINT right_toes
				{
					OFFSET	0	-60	-88.6
					CHANNELS 3  Xrotation Yrotation Zrotation
					JOINT right_foot_ee
					{
						OFFSET	22.5	-16.5	-42.2
						CHANNELS 3  Xrotation Yrotation Zrotation
						End Site
						{
							OFFSET	1	0	0
						}
					}
				}
			}
		}
	}
}
MOTION
Frames: 13
Frame Time: 0.02
3177.02 653.055 -1669.29 -3.77763005795 34.9703339359 -6.33518881018 -0.94349 0.774328 3.42247 -0.937145 0.555113 3.46474 -0.898012 -0.240331 3.50064 -0.914972 0.315199 3.4947 6.43581 0.454555 2.02361 6.45053 -1.02775 2.37173 -0.0 0.0 -0.0 3.3901 14.0772 7.17941 29.7058 50.694 50.4678 0.277571 -7.82928 0.0189941 35.8619 -0.151703 -4.5047 -1.12763 13.3536 -1.58616 -0.0 0.0 -0.0 7.44912 29.0208 -12.8837 14.5563 -14.8761 -64.9919 1.48567 36.3492 -0.487757 58.6444 1.65474 6.98148 6.79645 24.8411 -35.3474 0.0 0.0 0.0 45.0655 -43.077 20.0689 -10.8552 0.292538 1.63775 -3.48686 2.34448 0.517214 -37.5994 0.0 0.0 -0.0 0.0 -0.0 -6.85783 -13.3967 11.8093 -11.5768 -0.300913 -1.74816 33.3307 10.5339 4.40955 31.8774 -0.0 -0.0 0.0 0.0 0.0 
3177.02 653.055 -1669.29 -3.80078630796 35.4656327442 -6.29503537816 -0.94349 0.774328 3.42247 -0.937145 0.555113 3.46474 -0.898012 -0.240331 3.50064 -0.914972 0.315199 3.4947 6.43581 0.454555 2.02361 6.45053 -1.02775 2.37173 -0.0 0.0 -0.0 3.3901 14.0772 7.17941 29.7058 50.694 50.4678 0.277571 -7.82928 0.0189941 35.8619 -0.151703 -4.5047 -1.12763 13.3536 -1.58616 -0.0 0.0 -0.0 7.44912 29.0208 -12.8837 14.5563 -14.8761 -64.9919 1.48567 36.3492 -0.487757 58.6444 1.65474 6.98148 6.79645 24.8411 -35.3474 0.0 0.0 0.0 45.0655 -43.077 20.0689 -10.8552 0.292538 1.63775 -3.48686 2.34448 0.517214 -37.5994 0.0 0.0 -0.0 0.0 -0.0 -6.85783 -13.3967 11.8093 -11.5768 -0.300913 -1.74816 33.3307 10.5339 4.40955 31.8774 -0.0 -0.0 0.0 0.0 0.0 
3153.62652952 659.739 -1697.04562536 -3.18874279474 34.2592266228 -5.74426369887 -0.87063 0.781267 3.26236 -0.864891 0.572208 3.3054 -0.82687 -0.183521 3.34949 -0.842356 0.34747 3.33648 6.54543 0.416692 2.12197 6.56224 -1.18206 2.48792 -0.0 0.0 -0.0 4.16139 13.9017 8.4436 31.4137 50.2787 50.4384 0.308071 -8.67712 0.0233725 35.2312 -0.12473 -4.42871 -0.37778 10.1942 1.80112 -0.0 0.0 -0.0 8.01939 28.6791 -14.1749 12.323 -16.8898 -65.782 1.28887 32.5555 -0.376364 55.9481 1.42677 6.72183 6.78505 25.8019 -34.512 0.0 0.0 0.0 43.8182 -44.099 20.0769 -13.7346 0.317655 2.07879 -2.57951 3.75104 0.380993 -37.9297 0.0 0.0 -0.0 0.0 -0.0 -7.40744 -11.0248 11.465 -15.6927 -0.322062 -2.37917 31.3057 7.17722 4.13412 32.5739 -0.0 -0.0 0.0 0.0 0.0 
3153.40757587 659.739 -1696.85959606 -3.20611822451 34.7120228413 -5.71357611367 -0.87063 0.781267 3.26236 -0.864891 0.572208 3.3054 -0.82687 -0.183521 3.34949 -0.842356 0.34747 3.33648 6.54543 0.416692 2.12197 6.56224 -1.18206 2.48792 -0.0 0.0 -0.0 4.16139 13.9017 8.4436 31.4137 50.2787 50.4384 0.308071 -8.67712 0.0233725 35.2312 -0.12473 -4.42871 -0.37778 10.1942 1.80112 -0.0 0.0 -0.0 8.01939 28.6791 -14.1749 12.323 -16.8898 -65.782 1.28887 32.5555 -0.376364 55.9481 1.42677 6.72183 6.78505 25.8019 -34.512 0.0 0.0 0.0 43.8182 -44.099 20.0769 -13.7346 0.317655 2.07879 -2.57951 3.75104 0.380993 -37.9297 0.0 0.0 -0.0 0.0 -0.0 -7.40744 -11.0248 11.465 -15.6927 -0.322062 -2.37917 31.3057 7.17722 4.13412 32.5739 -0.0 -0.0 0.0 0.0 0.0 
3142.38944316 666.064 -1715.18403592 -3.33662663895 33.0725383363 -5.05261622537 -0.749766 0.752229 3.32198 -0.743789 0.539442 3.36304 -0.70722 -0.221344 3.39879 -0.723197 0.317894 3.39113 8.15975 0.100897 1.31865 8.16771 -1.02296 1.57115 -0.0 0.0 -0.0 4.73752 13.724 9.39659 34.1088 49.9007 50.2173 0.351421 -9.8755 0.0303608 34.6726 -0.101542 -4.36118 0.106635 6.72619 3.50068 -0.0 0.0 -0.0 9.58102 28.13 -17.6907 11.4267 -18.3244 -64.656 1.1821 30.3512 -0.320639 54.7872 1.33244 6.60682 6.65995 26.0056 -33.4166 0.0 0.0 0.0 42.5391 -44.9085 19.0983 -15.4758 0.32208 2.34589 0.870373 3.00856 -0.127664 -36.9261 0.0 0.0 -0.0 0.0 -0.0 -7.12343 -11.3726 11.2036 -16.6473 -0.320489 -2.52562 32.3297 3.00192 4.18178 33.1807 -0.0 -0.0 0.0 0.0 0.0 
3127.44191019 672.412 -1738.22371606 -2.65915466983 31.8312697031 -5.03364352664 -0.589461 0.620947 3.24586 -0.583696 0.41326 3.27875 -0.55582 -0.317127 3.28943 -0.570859 0.206065 3.29824 6.24595 0.637772 1.11674 6.24908 0.0918996 1.32078 -0.0 0.0 -0.0 4.94438 12.6754 9.74592 36.0981 49.4827 50.7976 0.341189 -9.59338 0.0286307 34.1634 -0.0809809 -4.29942 0.286488 4.51584 3.7778 -0.0 0.0 -0.0 9.61099 27.7564 -17.8008 9.20041 -18.8268 -66.0461 1.00552 26.4776 -0.236567 54.5219 1.31121 6.58027 6.62542 26.345 -32.9 0.0 0.0 0.0 40.4596 -43.0842 18.2684 -17.9455 0.314434 2.72471 1.27571 2.27683 -0.187163 -36.5633 0.0 0.0 -0.0 0.0 -0.0 -7.04734 -12.0077 11.453 -17.2083 -0.318426 -2.61167 29.859 3.85335 3.93243 32.8639 -0.0 -0.0 0.0 0.0 0.0 
3127.3415156 672.412 -1738.15139984 -2.66156421478 31.9146686775 -5.02908032201 -0.589461 0.620947 3.24586 -0.583696 0.41326 3.27875 -0.55582 -0.317127 3.28943 -0.570859 0.206065 3.29824 6.24595 0.637772 1.11674 6.24908 0.0918996 1.32078 -0.0 0.0 -0.0 4.94438 12.6754 9.74592 36.0981 49.4827 50.7976 0.341189 -9.59338 0.0286307 34.1634 -0.0809809 -4.29942 0.286488 4.51584 3.7778 -0.0 0.0 -0.0 9.61099 27.7564 -17.8008 9.20041 -18.8268 -66.0461 1.00552 26.4776 -0.236567 54.5219 1.31121 6.58027 6.62542 26.345 -32.9 0.0 0.0 0.0 40.4596 -43.0842 18.2684 -17.9455 0.314434 2.72471 1.27571 2.27683 -0.187163 -36.5633 0.0 0.0 -0.0 0.0 -0.0 -7.04734 -12.0077 11.453 -17.2083 -0.318426 -2.61167 29.859 3.85335 3.93243 32.8639 -0.0 -0.0 0.0 0.0 0.0 
3127.2169241 672.412 -1738.06134455 -2.66457199559 32.0182901712 -5.02339908145 -0.589461 0.620947 3.24586 -0.583696 0.41326 3.27875 -0.55582 -0.317127 3.28943 -0.570859 0.206065 3.29824 6.24595 0.637772 1.11674 6.24908 0.0918996 1.32078 -0.0 0.0 -0.0 4.94438 12.6754 9.74592 36.0981 49.4827 50.7976 0.341189 -9.59338 0.0286307 34.1634 -0.0809809 -4.29942 0.286488 4.51584 3.7778 -0.0 0.0 -0.0 9.61099 27.7564 -17.8008 9.20041 -18.8268 -66.0461 1.00552 26.4776 -0.236567 54.5219 1.31121 6.58027 6.62542 26.345 -32.9 0.0 0.0 0.0 40.4596 -43.0842 18.2684 -17.9455 0.314434 2.72471 1.27571 2.27683 -0.187163 -36.5633 0.0 0.0 -0.0 0.0 -0.0 -7.04734 -12.0077 11.453 -17.2083 -0.318426 -2.61167 29.859 3.85335 3.93243 32.8639 -0.0 -0.0 0.0 0.0 0.0 
3127.01250755 672.412 -1737.91284532 -2.6695492078 32.1885959202 -5.01403373846 -0.589461 0.620947 3.24586 -0.583696 0.41326 3.27875 -0.55582 -0.317127 3.28943 -0.570859 0.206065 3.29824 6.24595 0.637772 1.11674 6.24908 0.0918996 1.32078 -0.0 0.0 -0.0 4.94438 12.6754 9.74592 36.0981 49.4827 50.7976 0.341189 -9.59338 0.0286307 34.1634 -0.0809809 -4.29942 0.286488 4.51584 3.7778 -0.0 0.0 -0.0 9.61099 27.7564 -17.8008 9.20041 -18.8268 -66.0461 1.00552 26.4776 -0.236567 54.5219 1.31121 6.58027 6.62542 26.345 -32.9 0.0 0.0 0.0 40.4596 -43.0842 18.2684 -17.9455 0.314434 2.72471 1.27571 2.27683 -0.187163 -36.5633 0.0 0.0 -0.0 0.0 -0.0 -7.04734 -12.0077 11.453 -17.2083 -0.318426 -2.61167 29.859 3.85335 3.93243 32.8639 -0.0 -0.0 0.0 0.0 0.0 
3108.89309781 676.649 -1755.07503423 -1.54187539046 30.8629518849 -5.4483163271 -0.780182 0.41365 3.21285 -0.774464 0.208479 3.23263 -0.758623 -0.51841 3.19763 -0.77289 -0.00717349 3.23933 5.07258 0.00931479 0.632092 5.07436 -0.53717 0.723396 -0.0 0.0 -0.0 5.20623 12.4682 10.1908 38.3493 50.0327 50.9059 0.318391 -8.96313 0.0249549 34.4474 -0.0923836 -4.33389 0.392086 2.64194 3.70956 -0.0 0.0 -0.0 9.79932 27.5977 -18.2385 8.32138 -20.3562 -66.4945 0.87722 23.4871 -0.182362 52.5275 1.15564 6.37763 6.11848 25.0559 -30.1294 0.0 0.0 0.0 37.9514 -42.7587 18.5805 -18.8509 0.307542 2.86345 2.52727 4.88628 -0.368161 -36.1117 0.0 0.0 -0.0 0.0 -0.0 -4.67154 -6.29607 12.135 -25.9599 -0.17749 -3.94589 28.8281 -4.74123 3.76281 33.4693 -0.0 -0.0 0.0 0.0 0.0 
3107.61397902 676.649 -1754.0434728 -1.55599692505 31.7221121729 -5.42112932837 -0.780182 0.41365 3.21285 -0.774464 0.208479 3.23263 -0.758623 -0.51841 3.19763 -0.77289 -0.00717349 3.23933 5.07258 0.00931479 0.632092 5.07436 -0.53717 0.723396 -0.0 0.0 -0.0 5.20623 12.4682 10.1908 38.3493 50.0327 50.9059 0.318391 -8.96313 0.0249549 34.4474 -0.0923836 -4.33389 0.392086 2.64194 3.70956 -0.0 0.0 -0.0 9.79932 27.5977 -18.2385 8.32138 -20.3562 -66.4945 0.87722 23.4871 -0.182362 52.5275 1.15564 6.37763 6.11848 25.0559 -30.1294 0.0 0.0 0.0 37.9514 -42.7587 18.5805 -18.8509 0.307542 2.86345 2.52727 4.88628 -0.368161 -36.1117 0.0 0.0 -0.0 0.0 -0.0 -4.67154 -6.29607 12.135 -25.9599 -0.17749 -3.94589 28.8281 -4.74123 3.76281 33.4693 -0.0 -0.0 0.0 0.0 0.0 
3104.97763814 676.649 -1751.81420855 -1.58770880279 33.5272768709 -5.36231658252 -0.780182 0.41365 3.21285 -0.774464 0.208479 3.23263 -0.758623 -0.51841 3.19763 -0.77289 -0.00717349 3.23933 5.07258 0.00931479 0.632092 5.07436 -0.53717 0.723396 -0.0 0.0 -0.0 5.20623 12.4682 10.1908 38.3493 50.0327 50.9059 0.318391 -8.96313 0.0249549 34.4474 -0.0923836 -4.33389 0.392086 2.64194 3.70956 -0.0 0.0 -0.0 9.79932 27.5977 -18.2385 8.32138 -20.3562 -66.4945 0.87722 23.4871 -0.182362 52.5275 1.15564 6.37763 6.11848 25.0559 -30.1294 0.0 0.0 0.0 37.9514 -42.7587 18.5805 -18.8509 0.307542 2.86345 2.52727 4.88628 -0.368161 -36.1117 0.0 0.0 -0.0 0.0 -0.0 -4.67154 -6.29607 12.135 -25.9599 -0.17749 -3.94589 28.8281 -4.74123 3.76281 33.4693 -0.0 -0.0 0.0 0.0 0.0 
3101.186623 676.649 -1748.34470152 -1.64048196873 36.214300927 -5.27003724384 -0.780182 0.41365 3.21285 -0.774464 0.208479 3.23263 -0.758623 -0.51841 3.19763 -0.77289 -0.00717349 3.23933 5.07258 0.00931479 0.632092 5.07436 -0.53717 0.723396 -0.0 0.0 -0.0 5.20623 12.4682 10.1908 38.3493 50.0327 50.9059 0.318391 -8.96313 0.0249549 34.4474 -0.0923836 -4.33389 0.392086 2.64194 3.70956 -0.0 0.0 -0.0 9.79932 27.5977 -18.2385 8.32138 -20.3562 -66.4945 0.87722 23.4871 -0.182362 52.5275 1.15564 6.37763 6.11848 25.0559 -30.1294 0.0 0.0 0.0 37.9514 -42.7587 18.5805 -18.8509 0.307542 2.86345 2.52727 4.88628 -0.368161 -36.1117 0.0 0.0 -0.0 0.0 -0.0 -4.67154 -6.29607 12.135 -25.9599 -0.17749 -3.94589 28.8281 -4.74123 3.76281 33.4693 -0.0 -0.0 0.0 0.0 0.0 
